<svg xmlns="http://www.w3.org/2000/svg" xmlns:xlink="http://www.w3.org/1999/xlink" width="1080" zoomAndPan="magnify" viewBox="0 0 810 809.999993" height="1080" preserveAspectRatio="xMidYMid meet" version="1.0"><defs><g/></defs><g fill="#394149" fill-opacity="1"><g transform="translate(77.451678, 486.45026)"><g><path d="M 9.828125 -101.953125 C 12.460938 -104.597656 15.609375 -105.921875 19.265625 -105.921875 C 22.921875 -105.921875 26.066406 -104.597656 28.703125 -101.953125 C 31.347656 -99.316406 32.671875 -96.171875 32.671875 -92.515625 C 32.671875 -88.859375 31.347656 -85.710938 28.703125 -83.078125 C 26.066406 -80.441406 22.921875 -79.125 19.265625 -79.125 C 15.609375 -79.125 12.460938 -80.441406 9.828125 -83.078125 C 7.191406 -85.710938 5.875 -88.859375 5.875 -92.515625 C 5.875 -96.171875 7.191406 -99.316406 9.828125 -101.953125 Z M 7.65625 -65.46875 L 7.65625 0 L 30.25 0 L 30.25 -65.46875 Z M 7.65625 -65.46875 "/></g></g></g><g fill="#394149" fill-opacity="1"><g transform="translate(103.989905, 486.45026)"><g><path d="M 7.65625 0 L 7.65625 -65.46875 L 30.25 -65.46875 L 30.25 -58.578125 L 30.5 -58.578125 C 36.363281 -64.441406 42.613281 -67.375 49.25 -67.375 C 52.488281 -67.375 55.703125 -66.945312 58.890625 -66.09375 C 62.078125 -65.25 65.140625 -63.929688 68.078125 -62.140625 C 71.015625 -60.359375 73.394531 -57.828125 75.21875 -54.546875 C 77.050781 -51.273438 77.96875 -47.46875 77.96875 -43.125 L 77.96875 0 L 55.375 0 L 55.375 -37 C 55.375 -40.40625 54.289062 -43.382812 52.125 -45.9375 C 49.957031 -48.488281 47.128906 -49.765625 43.640625 -49.765625 C 40.234375 -49.765625 37.148438 -48.445312 34.390625 -45.8125 C 31.628906 -43.175781 30.25 -40.238281 30.25 -37 L 30.25 0 Z M 7.65625 0 "/></g></g></g><g fill="#394149" fill-opacity="1"><g transform="translate(176.3343, 486.45026)"><g><path d="M 11.484375 -65.46875 L 11.484375 -89.84375 L 34.078125 -89.84375 L 34.078125 -65.46875 L 47.859375 -65.46875 L 47.859375 -48.234375 L 34.078125 -48.234375 L 34.078125 -27.4375 C 34.078125 -21.394531 35.773438 -18.375 39.171875 -18.375 C 40.023438 -18.375 40.921875 -18.539062 41.859375 -18.875 C 42.796875 -19.21875 43.519531 -19.5625 44.03125 -19.90625 L 44.796875 -20.421875 L 50.40625 -2.171875 C 45.550781 0.554688 40.019531 1.921875 33.8125 1.921875 C 29.5625 1.921875 25.90625 1.175781 22.84375 -0.3125 C 19.78125 -1.800781 17.460938 -3.800781 15.890625 -6.3125 C 14.316406 -8.820312 13.1875 -11.457031 12.5 -14.21875 C 11.820312 -16.988281 11.484375 -19.945312 11.484375 -23.09375 L 11.484375 -48.234375 L 2.046875 -48.234375 L 2.046875 -65.46875 Z M 11.484375 -65.46875 "/></g></g></g><g fill="#394149" fill-opacity="1"><g transform="translate(214.738748, 486.45026)"><g><path d="M 73.890625 -29.609375 L 26.421875 -29.609375 C 26.421875 -25.015625 27.90625 -21.609375 30.875 -19.390625 C 33.851562 -17.179688 37.085938 -16.078125 40.578125 -16.078125 C 44.234375 -16.078125 47.125 -16.566406 49.25 -17.546875 C 51.382812 -18.523438 53.8125 -20.460938 56.53125 -23.359375 L 72.859375 -15.1875 C 66.054688 -3.78125 54.742188 1.921875 38.921875 1.921875 C 29.054688 1.921875 20.59375 -1.457031 13.53125 -8.21875 C 6.46875 -14.988281 2.9375 -23.132812 2.9375 -32.65625 C 2.9375 -42.1875 6.46875 -50.351562 13.53125 -57.15625 C 20.59375 -63.96875 29.054688 -67.375 38.921875 -67.375 C 49.296875 -67.375 57.738281 -64.375 64.25 -58.375 C 70.757812 -52.382812 74.015625 -43.816406 74.015625 -32.671875 C 74.015625 -31.140625 73.972656 -30.117188 73.890625 -29.609375 Z M 27.046875 -42.109375 L 51.9375 -42.109375 C 51.425781 -45.515625 50.082031 -48.128906 47.90625 -49.953125 C 45.738281 -51.785156 42.957031 -52.703125 39.5625 -52.703125 C 35.8125 -52.703125 32.832031 -51.722656 30.625 -49.765625 C 28.414062 -47.804688 27.222656 -45.253906 27.046875 -42.109375 Z M 27.046875 -42.109375 "/></g></g></g><g fill="#394149" fill-opacity="1"><g transform="translate(279.682684, 486.45026)"><g><path d="M 7.65625 0 L 7.65625 -65.46875 L 30.25 -65.46875 L 30.25 -56.015625 L 30.5 -56.015625 C 30.664062 -56.359375 30.941406 -56.785156 31.328125 -57.296875 C 31.710938 -57.804688 32.539062 -58.695312 33.8125 -59.96875 C 35.09375 -61.25 36.453125 -62.398438 37.890625 -63.421875 C 39.335938 -64.441406 41.207031 -65.351562 43.5 -66.15625 C 45.800781 -66.96875 48.144531 -67.375 50.53125 -67.375 C 53 -67.375 55.421875 -67.035156 57.796875 -66.359375 C 60.179688 -65.679688 61.929688 -65 63.046875 -64.3125 L 64.828125 -63.296875 L 55.375 -44.15625 C 52.570312 -46.53125 48.660156 -47.71875 43.640625 -47.71875 C 40.921875 -47.71875 38.582031 -47.125 36.625 -45.9375 C 34.664062 -44.75 33.28125 -43.300781 32.46875 -41.59375 C 31.664062 -39.894531 31.09375 -38.445312 30.75 -37.25 C 30.414062 -36.0625 30.25 -35.128906 30.25 -34.453125 L 30.25 0 Z M 7.65625 0 "/></g></g></g><g fill="#394149" fill-opacity="1"><g transform="translate(331.229297, 486.45026)"><g><path d="M 24.25 -65.46875 L 40.203125 -29.859375 L 56.140625 -65.46875 L 82.953125 -65.46875 L 47.859375 0 L 32.546875 0 L -2.546875 -65.46875 Z M 24.25 -65.46875 "/></g></g></g><g fill="#394149" fill-opacity="1"><g transform="translate(399.618271, 486.45026)"><g><path d="M 9.828125 -101.953125 C 12.460938 -104.597656 15.609375 -105.921875 19.265625 -105.921875 C 22.921875 -105.921875 26.066406 -104.597656 28.703125 -101.953125 C 31.347656 -99.316406 32.671875 -96.171875 32.671875 -92.515625 C 32.671875 -88.859375 31.347656 -85.710938 28.703125 -83.078125 C 26.066406 -80.441406 22.921875 -79.125 19.265625 -79.125 C 15.609375 -79.125 12.460938 -80.441406 9.828125 -83.078125 C 7.191406 -85.710938 5.875 -88.859375 5.875 -92.515625 C 5.875 -96.171875 7.191406 -99.316406 9.828125 -101.953125 Z M 7.65625 -65.46875 L 7.65625 0 L 30.25 0 L 30.25 -65.46875 Z M 7.65625 -65.46875 "/></g></g></g><g fill="#394149" fill-opacity="1"><g transform="translate(426.1565, 486.45026)"><g><path d="M 73.890625 -29.609375 L 26.421875 -29.609375 C 26.421875 -25.015625 27.90625 -21.609375 30.875 -19.390625 C 33.851562 -17.179688 37.085938 -16.078125 40.578125 -16.078125 C 44.234375 -16.078125 47.125 -16.566406 49.25 -17.546875 C 51.382812 -18.523438 53.8125 -20.460938 56.53125 -23.359375 L 72.859375 -15.1875 C 66.054688 -3.78125 54.742188 1.921875 38.921875 1.921875 C 29.054688 1.921875 20.59375 -1.457031 13.53125 -8.21875 C 6.46875 -14.988281 2.9375 -23.132812 2.9375 -32.65625 C 2.9375 -42.1875 6.46875 -50.351562 13.53125 -57.15625 C 20.59375 -63.96875 29.054688 -67.375 38.921875 -67.375 C 49.296875 -67.375 57.738281 -64.375 64.25 -58.375 C 70.757812 -52.382812 74.015625 -43.816406 74.015625 -32.671875 C 74.015625 -31.140625 73.972656 -30.117188 73.890625 -29.609375 Z M 27.046875 -42.109375 L 51.9375 -42.109375 C 51.425781 -45.515625 50.082031 -48.128906 47.90625 -49.953125 C 45.738281 -51.785156 42.957031 -52.703125 39.5625 -52.703125 C 35.8125 -52.703125 32.832031 -51.722656 30.625 -49.765625 C 28.414062 -47.804688 27.222656 -45.253906 27.046875 -42.109375 Z M 27.046875 -42.109375 "/></g></g></g><g fill="#394149" fill-opacity="1"><g transform="translate(491.100459, 486.45026)"><g><path d="M 47.859375 0 L 32.546875 0 L -2.546875 -65.46875 L 23.484375 -65.46875 L 39.4375 -30.109375 L 55.125 -65.46875 L 70.703125 -65.46875 L 86.390625 -30.109375 L 102.34375 -65.46875 L 128.375 -65.46875 L 93.28125 0 L 77.96875 0 L 62.90625 -33.8125 Z M 47.859375 0 "/></g></g></g><g fill="#394149" fill-opacity="1"><g transform="translate(604.912816, 486.45026)"><g><path d="M 73.890625 -29.609375 L 26.421875 -29.609375 C 26.421875 -25.015625 27.90625 -21.609375 30.875 -19.390625 C 33.851562 -17.179688 37.085938 -16.078125 40.578125 -16.078125 C 44.234375 -16.078125 47.125 -16.566406 49.25 -17.546875 C 51.382812 -18.523438 53.8125 -20.460938 56.53125 -23.359375 L 72.859375 -15.1875 C 66.054688 -3.78125 54.742188 1.921875 38.921875 1.921875 C 29.054688 1.921875 20.59375 -1.457031 13.53125 -8.21875 C 6.46875 -14.988281 2.9375 -23.132812 2.9375 -32.65625 C 2.9375 -42.1875 6.46875 -50.351562 13.53125 -57.15625 C 20.59375 -63.96875 29.054688 -67.375 38.921875 -67.375 C 49.296875 -67.375 57.738281 -64.375 64.25 -58.375 C 70.757812 -52.382812 74.015625 -43.816406 74.015625 -32.671875 C 74.015625 -31.140625 73.972656 -30.117188 73.890625 -29.609375 Z M 27.046875 -42.109375 L 51.9375 -42.109375 C 51.425781 -45.515625 50.082031 -48.128906 47.90625 -49.953125 C 45.738281 -51.785156 42.957031 -52.703125 39.5625 -52.703125 C 35.8125 -52.703125 32.832031 -51.722656 30.625 -49.765625 C 28.414062 -47.804688 27.222656 -45.253906 27.046875 -42.109375 Z M 27.046875 -42.109375 "/></g></g></g><g fill="#394149" fill-opacity="1"><g transform="translate(669.856752, 486.45026)"><g><path d="M 7.65625 0 L 7.65625 -65.46875 L 30.25 -65.46875 L 30.25 -56.015625 L 30.5 -56.015625 C 30.664062 -56.359375 30.941406 -56.785156 31.328125 -57.296875 C 31.710938 -57.804688 32.539062 -58.695312 33.8125 -59.96875 C 35.09375 -61.25 36.453125 -62.398438 37.890625 -63.421875 C 39.335938 -64.441406 41.207031 -65.351562 43.5 -66.15625 C 45.800781 -66.96875 48.144531 -67.375 50.53125 -67.375 C 53 -67.375 55.421875 -67.035156 57.796875 -66.359375 C 60.179688 -65.679688 61.929688 -65 63.046875 -64.3125 L 64.828125 -63.296875 L 55.375 -44.15625 C 52.570312 -46.53125 48.660156 -47.71875 43.640625 -47.71875 C 40.921875 -47.71875 38.582031 -47.125 36.625 -45.9375 C 34.664062 -44.75 33.28125 -43.300781 32.46875 -41.59375 C 31.664062 -39.894531 31.09375 -38.445312 30.75 -37.25 C 30.414062 -36.0625 30.25 -35.128906 30.25 -34.453125 L 30.25 0 Z M 7.65625 0 "/></g></g></g><g fill="#394149" fill-opacity="1"><g transform="translate(721.403365, 486.45026)"><g><path d="M 22.203125 -27.3125 C 26.285156 -27.3125 29.75 -25.882812 32.59375 -23.03125 C 35.445312 -20.1875 36.875 -16.722656 36.875 -12.640625 C 36.875 -8.640625 35.445312 -5.210938 32.59375 -2.359375 C 29.75 0.492188 26.285156 1.921875 22.203125 1.921875 C 18.203125 1.921875 14.773438 0.492188 11.921875 -2.359375 C 9.078125 -5.210938 7.65625 -8.640625 7.65625 -12.640625 C 7.65625 -16.722656 9.078125 -20.1875 11.921875 -23.03125 C 14.773438 -25.882812 18.203125 -27.3125 22.203125 -27.3125 Z M 22.203125 -27.3125 "/></g></g></g><g fill="#000000" fill-opacity="1"><g transform="translate(341.716655, 540.658985)"><g><path d="M 23.625 -18.734375 C 27.726562 -18.734375 29.78125 -16.179688 29.78125 -11.078125 L 29.78125 -1.6875 C 29.78125 -1.195312 29.625 -0.789062 29.3125 -0.46875 C 29.007812 -0.15625 28.613281 0 28.125 0 C 27.632812 0 27.226562 -0.160156 26.90625 -0.484375 C 26.59375 -0.816406 26.4375 -1.21875 26.4375 -1.6875 L 26.4375 -11.046875 C 26.4375 -14.109375 25.148438 -15.640625 22.578125 -15.640625 C 21.660156 -15.640625 20.832031 -15.4375 20.09375 -15.03125 C 19.351562 -14.625 18.773438 -14.066406 18.359375 -13.359375 C 17.953125 -12.660156 17.75 -11.890625 17.75 -11.046875 L 17.75 -1.6875 C 17.75 -1.21875 17.59375 -0.816406 17.28125 -0.484375 C 16.96875 -0.160156 16.5625 0 16.0625 0 C 15.570312 0 15.175781 -0.15625 14.875 -0.46875 C 14.570312 -0.789062 14.421875 -1.195312 14.421875 -1.6875 L 14.421875 -11.078125 C 14.421875 -12.460938 14.125 -13.566406 13.53125 -14.390625 C 12.945312 -15.222656 11.976562 -15.640625 10.625 -15.640625 C 9.238281 -15.640625 8.09375 -15.203125 7.1875 -14.328125 C 6.289062 -13.453125 5.84375 -12.367188 5.84375 -11.078125 L 5.84375 -1.6875 C 5.84375 -1.21875 5.679688 -0.816406 5.359375 -0.484375 C 5.046875 -0.160156 4.644531 0 4.15625 0 C 3.65625 0 3.253906 -0.15625 2.953125 -0.46875 C 2.648438 -0.789062 2.5 -1.195312 2.5 -1.6875 L 2.5 -16.734375 C 2.5 -17.203125 2.65625 -17.597656 2.96875 -17.921875 C 3.289062 -18.253906 3.6875 -18.421875 4.15625 -18.421875 C 4.644531 -18.421875 5.046875 -18.253906 5.359375 -17.921875 C 5.679688 -17.597656 5.84375 -17.203125 5.84375 -16.734375 L 5.84375 -15.5 C 6.445312 -16.414062 7.257812 -17.179688 8.28125 -17.796875 C 9.300781 -18.421875 10.410156 -18.734375 11.609375 -18.734375 C 14.515625 -18.734375 16.398438 -17.445312 17.265625 -14.875 C 17.773438 -15.851562 18.628906 -16.738281 19.828125 -17.53125 C 21.023438 -18.332031 22.289062 -18.734375 23.625 -18.734375 Z M 23.625 -18.734375 "/></g></g></g><g fill="#000000" fill-opacity="1"><g transform="translate(396.918717, 540.658985)"><g><path d="M 19.9375 -9.21875 C 19.9375 -7.382812 19.523438 -5.738281 18.703125 -4.28125 C 17.878906 -2.832031 16.757812 -1.695312 15.34375 -0.875 C 13.925781 -0.0507812 12.363281 0.359375 10.65625 0.359375 C 8.945312 0.359375 7.378906 -0.0507812 5.953125 -0.875 C 4.535156 -1.695312 3.414062 -2.832031 2.59375 -4.28125 C 1.78125 -5.738281 1.375 -7.382812 1.375 -9.21875 C 1.375 -11.039062 1.78125 -12.691406 2.59375 -14.171875 C 3.414062 -15.648438 4.535156 -16.796875 5.953125 -17.609375 C 7.378906 -18.429688 8.945312 -18.84375 10.65625 -18.84375 C 12.363281 -18.84375 13.925781 -18.429688 15.34375 -17.609375 C 16.757812 -16.796875 17.878906 -15.648438 18.703125 -14.171875 C 19.523438 -12.691406 19.9375 -11.039062 19.9375 -9.21875 Z M 16.59375 -9.21875 C 16.59375 -10.476562 16.328125 -11.601562 15.796875 -12.59375 C 15.273438 -13.59375 14.5625 -14.367188 13.65625 -14.921875 C 12.757812 -15.472656 11.757812 -15.75 10.65625 -15.75 C 9.550781 -15.75 8.546875 -15.472656 7.640625 -14.921875 C 6.742188 -14.367188 6.03125 -13.59375 5.5 -12.59375 C 4.976562 -11.601562 4.71875 -10.476562 4.71875 -9.21875 C 4.71875 -7.96875 4.976562 -6.847656 5.5 -5.859375 C 6.03125 -4.878906 6.742188 -4.113281 7.640625 -3.5625 C 8.546875 -3.019531 9.550781 -2.75 10.65625 -2.75 C 11.757812 -2.75 12.757812 -3.019531 13.65625 -3.5625 C 14.5625 -4.113281 15.273438 -4.878906 15.796875 -5.859375 C 16.328125 -6.847656 16.59375 -7.96875 16.59375 -9.21875 Z M 16.59375 -9.21875 "/></g></g></g><g fill="#000000" fill-opacity="1"><g transform="translate(441.15203, 540.658985)"><g><path d="M 10.515625 -18.84375 C 12.367188 -18.84375 13.910156 -18.550781 15.140625 -17.96875 C 16.367188 -17.382812 16.984375 -16.632812 16.984375 -15.71875 C 16.984375 -15.320312 16.851562 -14.960938 16.59375 -14.640625 C 16.332031 -14.328125 16.003906 -14.171875 15.609375 -14.171875 C 15.304688 -14.171875 15.066406 -14.21875 14.890625 -14.3125 C 14.710938 -14.40625 14.472656 -14.554688 14.171875 -14.765625 C 14.023438 -14.910156 13.800781 -15.078125 13.5 -15.265625 C 13.21875 -15.398438 12.816406 -15.515625 12.296875 -15.609375 C 11.785156 -15.703125 11.320312 -15.75 10.90625 -15.75 C 9.6875 -15.75 8.609375 -15.46875 7.671875 -14.90625 C 6.734375 -14.34375 6.003906 -13.5625 5.484375 -12.5625 C 4.972656 -11.570312 4.71875 -10.46875 4.71875 -9.25 C 4.71875 -8.007812 4.96875 -6.894531 5.46875 -5.90625 C 5.96875 -4.925781 6.675781 -4.15625 7.59375 -3.59375 C 8.507812 -3.03125 9.550781 -2.75 10.71875 -2.75 C 11.9375 -2.75 12.921875 -2.9375 13.671875 -3.3125 C 13.835938 -3.40625 14.0625 -3.554688 14.34375 -3.765625 C 14.582031 -3.953125 14.785156 -4.09375 14.953125 -4.1875 C 15.128906 -4.28125 15.347656 -4.328125 15.609375 -4.328125 C 16.078125 -4.328125 16.445312 -4.179688 16.71875 -3.890625 C 16.988281 -3.597656 17.125 -3.21875 17.125 -2.75 C 17.125 -2.25 16.8125 -1.757812 16.1875 -1.28125 C 15.570312 -0.800781 14.738281 -0.40625 13.6875 -0.09375 C 12.644531 0.207031 11.53125 0.359375 10.34375 0.359375 C 8.5625 0.359375 6.988281 -0.0546875 5.625 -0.890625 C 4.269531 -1.722656 3.222656 -2.875 2.484375 -4.34375 C 1.742188 -5.8125 1.375 -7.445312 1.375 -9.25 C 1.375 -11.050781 1.757812 -12.679688 2.53125 -14.140625 C 3.300781 -15.609375 4.378906 -16.757812 5.765625 -17.59375 C 7.148438 -18.425781 8.734375 -18.84375 10.515625 -18.84375 Z M 10.515625 -18.84375 "/></g></g></g><g fill="#000000" fill-opacity="1"><g transform="translate(482.150968, 540.658985)"><g><path d="M 17.546875 -2.921875 C 17.898438 -2.546875 18.078125 -2.132812 18.078125 -1.6875 C 18.078125 -1.21875 17.894531 -0.820312 17.53125 -0.5 C 17.164062 -0.1875 16.785156 -0.03125 16.390625 -0.03125 C 15.867188 -0.03125 15.457031 -0.21875 15.15625 -0.59375 L 8.234375 -7.953125 L 6.125 -6.046875 L 6.125 -1.6875 C 6.125 -1.21875 5.960938 -0.816406 5.640625 -0.484375 C 5.328125 -0.160156 4.9375 0 4.46875 0 C 3.976562 0 3.570312 -0.160156 3.25 -0.484375 C 2.9375 -0.816406 2.78125 -1.21875 2.78125 -1.6875 L 2.78125 -24.328125 C 2.78125 -24.796875 2.9375 -25.191406 3.25 -25.515625 C 3.570312 -25.847656 3.976562 -26.015625 4.46875 -26.015625 C 4.9375 -26.015625 5.328125 -25.847656 5.640625 -25.515625 C 5.960938 -25.191406 6.125 -24.796875 6.125 -24.328125 L 6.125 -10.0625 L 14.734375 -17.96875 C 15.128906 -18.320312 15.539062 -18.5 15.96875 -18.5 C 16.363281 -18.5 16.722656 -18.328125 17.046875 -17.984375 C 17.378906 -17.640625 17.546875 -17.28125 17.546875 -16.90625 C 17.546875 -16.4375 17.320312 -16.015625 16.875 -15.640625 L 10.796875 -10.234375 Z M 17.546875 -2.921875 "/></g></g></g></svg>